<?xml version="1.0" standalone="no"?>
<!DOCTYPE svg PUBLIC "-//W3C//DTD SVG 20010904//EN"
 "http://www.w3.org/TR/2001/REC-SVG-20010904/DTD/svg10.dtd">
<svg version="1.0" xmlns="http://www.w3.org/2000/svg"
 width="600.000000pt" height="600.000000pt" viewBox="0 0 600.000000 600.000000"
 preserveAspectRatio="xMidYMid meet">
<metadata>
Created by potrace 1.11, written by Peter Selinger 2001-2013
</metadata>
<g transform="translate(0.000000,600.000000) scale(0.100000,-0.100000)"
fill="#000000" stroke="none">
<path d="M0 3000 l0 -3000 3000 0 3000 0 0 3000 0 3000 -3000 0 -3000 0 0
-3000z m4910 1880 l0 -130 -230 0 -230 0 -29 -27 c-33 -31 -671 -1035 -671
-1057 0 -7 173 -508 385 -1112 478 -1362 445 -1270 461 -1291 11 -16 37 -18
253 -21 l241 -3 0 -130 0 -129 -2090 0 -2090 0 0 130 0 130 239 0 c235 0 240
0 265 23 18 16 43 76 90 212 35 105 223 647 416 1205 193 558 349 1022 347
1030 -2 8 -147 241 -321 517 -272 431 -322 503 -348 512 -19 7 -123 11 -264
11 l-234 0 0 130 0 130 1905 0 1905 0 0 -130z"/>
<path d="M2987 4802 c-9 -9 -94 -246 -190 -525 l-175 -508 212 -335 c116 -184
214 -334 217 -334 3 0 88 128 187 285 l181 286 -189 549 c-160 466 -210 600
-225 600 -1 0 -9 -8 -18 -18z"/>
<path d="M2011 4742 c7 -18 394 -631 399 -632 7 0 221 622 216 627 -3 3 -143
7 -312 11 -219 3 -306 2 -303 -6z"/>
<path d="M3370 4743 c0 -15 254 -733 260 -733 8 0 460 716 460 729 0 8 -104
11 -360 11 -198 0 -360 -3 -360 -7z"/>
<path d="M2391 3087 c-52 -155 -96 -288 -99 -294 -3 -10 56 -13 277 -13 l281
0 -10 24 c-8 22 -332 541 -349 558 -3 4 -49 -120 -100 -275z"/>
<path d="M3513 3303 c-41 -59 -310 -489 -316 -505 -6 -17 10 -18 258 -18 146
0 265 2 265 4 0 6 -182 540 -185 544 -2 2 -12 -9 -22 -25z"/>
<path d="M2188 2493 c-14 -17 -428 -1218 -428 -1242 0 -8 160 -11 545 -11
l545 0 0 635 0 635 -323 0 c-296 0 -325 -1 -339 -17z"/>
<path d="M3192 1878 l3 -633 534 -3 c505 -2 533 -1 526 15 -10 27 -331 941
-382 1088 -24 72 -52 138 -60 148 -15 15 -43 17 -320 17 l-303 0 2 -632z"/>
</g>
</svg>
